<svg width="960" height="1080" viewBox="0 0 960 1080" fill="none" xmlns="http://www.w3.org/2000/svg">
    <path
        d="M541.25 143.625C610.078 143.625 665.875 87.8285 665.875 19C665.875 -49.8285 610.078 -105.625 541.25 -105.625C472.422 -105.625 416.625 -49.8285 416.625 19C416.625 87.8285 472.422 143.625 541.25 143.625Z"
        fill="url(#paint0_linear_1_12760)" />
    <path
        d="M977.438 579.812V455.188C881.476 456.434 784.892 408.453 723.826 341.156L643.443 252.049C632.849 240.209 619.764 230.862 605.432 224.008C604.809 224.008 604.809 223.385 604.186 223.385H603.562C581.753 210.923 556.828 204.691 529.411 207.184C463.983 212.792 416.625 270.743 416.625 336.171V704.438C416.625 772.981 472.706 829.062 541.25 829.062H852.812V1140.62H977.438V797.906C977.438 729.362 921.356 673.281 852.812 673.281H665.875V458.303C746.258 524.978 868.391 579.189 977.438 579.812ZM592.969 891.375C567.421 963.657 498.254 1016 416.625 1016C313.186 1016 229.688 932.501 229.688 829.062C229.688 747.433 282.03 678.889 354.312 652.718V523.731C212.24 552.395 105.062 678.266 105.062 829.062C105.062 1001.04 244.643 1140.62 416.625 1140.62C567.421 1140.62 693.292 1033.45 721.956 891.375H592.969Z"
        fill="url(#paint1_linear_1_12760)" />
    <defs>
        <linearGradient id="paint0_linear_1_12760" x1="8.73771" y1="-265.693" x2="1213.4"
            y2="-100.116" gradientUnits="userSpaceOnUse">
            <stop stop-color="#6A11B1" />
            <stop offset="1" stop-color="#78CCDD" />
        </linearGradient>
        <linearGradient id="paint1_linear_1_12760" x1="8.73771" y1="-265.693" x2="1213.4"
            y2="-100.116" gradientUnits="userSpaceOnUse">
            <stop stop-color="#6A11B1" />
            <stop offset="1" stop-color="#78CCDD" />
        </linearGradient>
    </defs>
</svg>
    