<svg width="210" height="48" viewBox="0 0 210 48" fill="none" xmlns="http://www.w3.org/2000/svg">
    <path
        d="M15.1677 47.583C15.4595 47.583 15.6679 47.4579 15.7513 47.1245L22.2957 27.1994L28.8402 47.1245C28.9235 47.4579 29.1319 47.583 29.4237 47.583H33.2587C33.5505 47.583 33.8006 47.4579 33.8839 47.1662L44.5553 17.612C44.68 17.2369 44.4718 16.9868 44.0965 16.9868H38.9277C38.6359 16.9868 38.4275 17.1118 38.3442 17.4453L31.5913 38.1207L24.7968 17.4453C24.7134 17.1118 24.505 16.9868 24.2132 16.9868H20.4616C20.1698 16.9868 19.9614 17.1118 19.878 17.4453L13.0835 38.079L6.37238 17.4453C6.289 17.1118 6.08057 16.9868 5.78876 16.9868H0.494883C0.119725 16.9868 -0.0886969 17.2369 0.0363553 17.612L10.7075 47.1662C10.7909 47.4579 11.041 47.583 11.3328 47.583H15.1677ZM53.1567 47.583C53.4901 47.583 53.6987 47.3746 53.6987 47.0411V36.5783C53.6987 32.4516 56.1995 30.4925 58.8258 30.4925C61.6604 30.4925 62.9526 32.1598 62.9526 35.7447V47.0411C62.9526 47.3746 63.1608 47.583 63.4945 47.583H67.8295C68.1632 47.583 68.3715 47.3746 68.3715 47.0411V33.5354C68.3715 28.575 65.4953 25.5737 60.4933 25.5737C57.867 25.5737 55.3242 26.5741 53.6987 28.6584V16.8617C53.6987 16.5282 53.4901 16.3198 53.1567 16.3198H48.8214C48.4881 16.3198 48.2798 16.5282 48.2798 16.8617V47.0411C48.2798 47.3746 48.4881 47.583 48.8214 47.583H53.1567ZM83.5552 47.9998C87.5568 47.9998 91.142 46.2908 93.0592 42.4975C93.2259 42.1641 93.1008 41.9139 92.7675 41.7889L89.0576 40.4967C88.7658 40.4133 88.5156 40.455 88.349 40.7468C87.3486 42.3725 85.8062 43.2062 83.5967 43.2062C80.7206 43.2062 78.8865 41.4137 78.3865 38.4541H93.1843C93.5177 38.4541 93.7263 38.2874 93.7679 37.9122C93.9761 30.4925 90.1831 25.5737 83.5552 25.5737C76.7606 25.5737 72.6339 30.2424 72.6339 36.7868C72.6339 43.3312 76.7606 47.9998 83.5552 47.9998ZM83.5136 30.3674C85.8478 30.3674 87.4737 31.868 87.9737 34.4108H78.4696C79.1367 31.8264 80.9708 30.3674 83.5136 30.3674ZM107.45 47.9998C111.452 47.9998 115.037 46.2908 116.954 42.4975C117.121 42.1641 116.996 41.9139 116.663 41.7889L112.953 40.4967C112.661 40.4133 112.411 40.455 112.244 40.7468C111.244 42.3725 109.701 43.2062 107.492 43.2062C104.616 43.2062 102.782 41.4137 102.282 38.4541H117.08C117.413 38.4541 117.622 38.2874 117.663 37.9122C117.871 30.4925 114.078 25.5737 107.45 25.5737C100.656 25.5737 96.5291 30.2424 96.5291 36.7868C96.5291 43.3312 100.656 47.9998 107.45 47.9998ZM107.409 30.3674C109.743 30.3674 111.369 31.868 111.869 34.4108H102.365C103.032 31.8264 104.866 30.3674 107.409 30.3674ZM126.552 47.583C126.886 47.583 127.094 47.3746 127.094 47.0411V16.8617C127.094 16.5282 126.886 16.3198 126.552 16.3198H122.217C121.883 16.3198 121.675 16.5282 121.675 16.8617V47.0411C121.675 47.3746 121.883 47.583 122.217 47.583H126.552Z"
        fill="#1B052F" />
    <mask id="mask0_897_14439" style="mask-type:alpha" maskUnits="userSpaceOnUse" x="136" y="0"
        width="74" height="48">
        <path
            d="M151.704 48.0001C160.893 48.0001 165.841 42.1374 165.841 34.5283V31.0772C165.841 30.7445 165.633 30.5366 165.3 30.5366H152.577C152.245 30.5366 152.037 30.7445 152.037 31.0772V35.1935C152.037 35.5262 152.245 35.7341 152.577 35.7341H160.186C159.729 40.1832 156.361 42.5116 151.87 42.5116C146.049 42.5116 142.515 38.4367 142.515 32.1998C142.515 25.9629 146.008 21.8049 151.87 21.8049C155.321 21.8049 157.941 23.3434 159.396 26.1292C159.521 26.4202 159.77 26.545 160.062 26.4618L164.51 25.2144C164.843 25.1313 164.968 24.8402 164.843 24.5076C162.806 19.3101 158.19 16.3164 151.787 16.3164C143.014 16.3164 136.694 22.5949 136.694 32.1582C136.694 41.7216 142.723 48.0001 151.704 48.0001Z"
            fill="white" />
        <path
            d="M207.241 4.5C207.241 6.98438 205.226 9 202.741 9C200.257 9 198.241 6.98438 198.241 4.5C198.241 2.01562 200.257 0 202.741 0C205.226 0 207.241 2.01562 207.241 4.5ZM187.413 11.3719C186.907 11.1375 186.316 11.1938 185.876 11.5312L182.041 14.4094C180.719 15.4031 178.835 15.1313 177.841 13.8094C176.847 12.4875 177.119 10.6031 178.441 9.60938L182.276 6.73125C184.497 5.0625 187.46 4.7625 189.972 5.94375L198.447 9.92813C201.176 11.2125 201.897 14.7656 199.872 17.0063L196.282 21H205.413C208.254 21 210.382 23.5969 209.829 26.3813L207.185 39.5906C206.857 41.2125 205.282 42.2719 203.651 41.9438C202.019 41.6156 200.969 40.0406 201.297 38.4094L203.585 27H196.994C197.801 28.8375 198.241 30.8625 198.241 33C198.241 41.2875 191.529 48 183.241 48C174.954 48 168.241 41.2875 168.241 33C168.241 24.7125 174.954 18 183.241 18C184.282 18 185.304 18.1031 186.279 18.3094L191.36 13.2281L187.413 11.3719ZM183.241 42C188.21 42 192.241 37.9688 192.241 33C192.241 28.0313 188.21 24 183.241 24C178.272 24 174.241 28.0313 174.241 33C174.241 37.9688 178.272 42 183.241 42Z"
            fill="white" />
    </mask>
    <g mask="url(#mask0_897_14439)">
        <rect x="115.094" y="-33.6001" width="115.2" height="115.2" fill="#1B052F" />
        <rect x="168.71" y="21.8994" width="39.0517" height="42.1238"
            transform="rotate(-53.5548 168.71 21.8994)" fill="#78CCDD" />
    </g>
</svg>
    